<svg xmlns="http://www.w3.org/2000/svg" viewBox="0 0 303.68 45.64">
  <defs>
    <style>
      .a, .c {
        fill: #c10139;
      }

      .b {
        fill: #575656;
      }

      .c, .e {
        fill-rule: evenodd;
      }

      .d, .e {
        fill: #fff;
      }
    </style>
  </defs>
  <title>Asset 1</title>
  <g>
    <path class="a" d="M89.37,30.69,102.5.57h8.69l11.73,30.11h-8l-2.15-5.86h-13l-2.41,5.86Zm12.61-11h8.89L106.65,8.2Zm-32.07,11V.57H89.4V6.13H77.45v6.53h11.2V18.3H77.45V30.69Zm-13.84,0V.57h7.76V30.69Z"/>
    <path class="b" d="M286.61,28.33V22.66A15.32,15.32,0,0,0,290.52,26a8.11,8.11,0,0,0,4,1A5.44,5.44,0,0,0,298,26a3.45,3.45,0,0,0,1.29-2.83,4,4,0,0,0-.87-2.57,18.58,18.58,0,0,0-4.16-3.2c-3.41-2.2-5.54-3.9-6.41-5.11A7.19,7.19,0,0,1,286.57,8a7.45,7.45,0,0,1,2.48-5.77A9.2,9.2,0,0,1,295.46,0a12,12,0,0,1,3.44.51,14.51,14.51,0,0,1,3.41,1.57V7a16.27,16.27,0,0,0-3.66-2.32,8.47,8.47,0,0,0-3.35-.72,5.2,5.2,0,0,0-3.31,1,3.13,3.13,0,0,0-1.28,2.58q0,2.24,5.31,5.56l.65.39q4.33,2.69,5.67,4.74a9.19,9.19,0,0,1,1.34,5.09,7.31,7.31,0,0,1-2.5,5.69,9.21,9.21,0,0,1-6.4,2.25,13.09,13.09,0,0,1-4.39-.69,12.08,12.08,0,0,1-3.77-2.19m-22.44,2.35V.57h18.12V4.41H268.45v9.13H281.9v3.88H268.45v9.39h14.28v3.88Zm-4.93-7.14V28.4a25.74,25.74,0,0,1-5.39,2.09,21.48,21.48,0,0,1-5.44.72,17.85,17.85,0,0,1-4.94-.68,17.14,17.14,0,0,1-4.44-2,15.55,15.55,0,0,1-5.22-5.61A15.25,15.25,0,0,1,232,15.5a15,15,0,0,1,4.72-10.87,16,16,0,0,1,5.4-3.41A18.6,18.6,0,0,1,248.7.09a22.08,22.08,0,0,1,5,.58A27.79,27.79,0,0,1,259,2.51V7.19a28.31,28.31,0,0,0-5.39-2.3,17.32,17.32,0,0,0-4.89-.74A12.14,12.14,0,0,0,240,7.43a10.88,10.88,0,0,0-3.45,8.23,10.9,10.9,0,0,0,3.39,8.17,11.75,11.75,0,0,0,8.52,3.28,17,17,0,0,0,5.32-.88A23.41,23.41,0,0,0,259.24,23.54Zm-36.55,7.14V.57H227V30.69Zm-17.1.22L192.32.57h4.5l9.38,21.48L215.79.57h4.44L206.7,30.91Zm-29.8-17.28h3.57a7.3,7.3,0,0,0,4.5-1.16,4.24,4.24,0,0,0,1.49-3.56,4.24,4.24,0,0,0-1.42-3.56,7.47,7.47,0,0,0-4.58-1.11h-3.57Zm-4.32,17.06V.57h8.82q4.56,0,7,2.15a7.63,7.63,0,0,1,2.48,6.09,7.78,7.78,0,0,1-1.36,4.78,8.19,8.19,0,0,1-4.3,2.71,5.93,5.93,0,0,1,1.43,1.09,15.63,15.63,0,0,1,1.73,2.27l7.31,11h-5.21l-5.17-7.9a17.46,17.46,0,0,0-3.76-4.56,5.81,5.81,0,0,0-3.4-1h-1.29V30.69Zm-23.94,0V.57h18.12V4.41H151.81v9.13h13.45v3.88H151.81v9.39h14.28v3.88Zm-21.87-2.35V22.66A15.32,15.32,0,0,0,129.57,26a8.11,8.11,0,0,0,4,1,5.44,5.44,0,0,0,3.53-1,3.45,3.45,0,0,0,1.29-2.83,4,4,0,0,0-.87-2.57,18.59,18.59,0,0,0-4.16-3.2c-3.41-2.2-5.54-3.9-6.42-5.11A7.19,7.19,0,0,1,125.62,8a7.45,7.45,0,0,1,2.48-5.77A9.2,9.2,0,0,1,134.51,0a12,12,0,0,1,3.44.51,14.51,14.51,0,0,1,3.41,1.57V7a16.27,16.27,0,0,0-3.66-2.32,8.47,8.47,0,0,0-3.35-.72,5.2,5.2,0,0,0-3.31,1,3.13,3.13,0,0,0-1.28,2.58q0,2.24,5.31,5.56l.65.39q4.33,2.69,5.67,4.74a9.19,9.19,0,0,1,1.34,5.09,7.31,7.31,0,0,1-2.5,5.69,9.21,9.21,0,0,1-6.4,2.25,13.09,13.09,0,0,1-4.39-.69A12.07,12.07,0,0,1,125.66,28.33Z"/>
    <path class="b" d="M303.44,39.35a3.86,3.86,0,0,0-.85-.45,2.35,2.35,0,0,0-.8-.14,1.52,1.52,0,0,0-1.07.38,1.26,1.26,0,0,0-.42,1,1.12,1.12,0,0,0,.27.77,3.48,3.48,0,0,0,1.15.67l.15.06a3.76,3.76,0,0,1,1.33.78,1.75,1.75,0,0,1,.35.58,2,2,0,0,1,.12.69,1.84,1.84,0,0,1-.6,1.41,2.16,2.16,0,0,1-1.53.55,2.79,2.79,0,0,1-.93-.16,3.93,3.93,0,0,1-.93-.48v-.7a4.45,4.45,0,0,0,1,.59,2.26,2.26,0,0,0,.88.19,1.57,1.57,0,0,0,1.12-.39,1.36,1.36,0,0,0,.41-1,1.15,1.15,0,0,0-.28-.8,3.9,3.9,0,0,0-1.27-.73,3.9,3.9,0,0,1-1.41-.86,1.62,1.62,0,0,1-.38-1.11,1.78,1.78,0,0,1,.58-1.37,2.14,2.14,0,0,1,1.51-.53,3,3,0,0,1,.82.12,3.39,3.39,0,0,1,.8.36Zm-9.53,6.16V38.33h3.89v.46h-3.32v2.85h3.21v.46h-3.21V45h3.4v.48ZM291.79,45a6.42,6.42,0,0,1-1.27.49,4.84,4.84,0,0,1-1.24.17,4.24,4.24,0,0,1-1.18-.16,3.85,3.85,0,0,1-1-.48,3.59,3.59,0,0,1-1.23-1.33,3.71,3.71,0,0,1-.44-1.78,3.62,3.62,0,0,1,1.1-2.59,3.8,3.8,0,0,1,1.26-.82,4.14,4.14,0,0,1,1.52-.28,4.7,4.7,0,0,1,1.22.17,6.6,6.6,0,0,1,1.29.51v.6a7.27,7.27,0,0,0-1.35-.57,4.12,4.12,0,0,0-1.19-.19,3.33,3.33,0,0,0-1,.14,3.26,3.26,0,0,0-.86.4A3.17,3.17,0,0,0,286,41.92a3.29,3.29,0,0,0,.92,2.27,3,3,0,0,0,1,.69,3.39,3.39,0,0,0,1.28.24,4.09,4.09,0,0,0,1.18-.19,7.62,7.62,0,0,0,1.35-.57Zm-9.27.53V38.33h.62v7.18Zm-7.78-7.18h.63l2.46,6,2.48-6h.61l-3,7.31h-.09Zm-5.77,0h1.75a2.85,2.85,0,0,1,1.76.46,1.58,1.58,0,0,1,.61,1.33,1.73,1.73,0,0,1-.34,1.1,2.05,2.05,0,0,1-1,.66,2,2,0,0,1,.35.26,1.92,1.92,0,0,1,.29.34l2,3h-.65l-1.14-1.77c-.23-.35-.42-.63-.59-.86a4.31,4.31,0,0,0-.39-.48,1.08,1.08,0,0,0-.5-.27,4,4,0,0,0-.92-.08h-.59v3.45H269Zm.58.48v2.76H270a10.65,10.65,0,0,0,1.14,0,1.89,1.89,0,0,0,.53-.14,1.3,1.3,0,0,0,.59-.49,1.42,1.42,0,0,0,.2-.77,1.15,1.15,0,0,0-.44-1,2,2,0,0,0-1.26-.34Zm-6.72,6.7V38.33h3.89v.46h-3.32v2.85h3.21v.46h-3.21V45h3.4v.48Zm-2.39-6.16a3.86,3.86,0,0,0-.85-.45,2.35,2.35,0,0,0-.8-.14,1.52,1.52,0,0,0-1.07.38,1.26,1.26,0,0,0-.42,1,1.12,1.12,0,0,0,.27.77,3.49,3.49,0,0,0,1.15.67l.15.06a3.76,3.76,0,0,1,1.33.78,1.75,1.75,0,0,1,.35.58,2,2,0,0,1,.12.69,1.84,1.84,0,0,1-.6,1.41,2.16,2.16,0,0,1-1.53.55,2.79,2.79,0,0,1-.93-.16,3.94,3.94,0,0,1-.93-.48v-.7a4.45,4.45,0,0,0,1,.59,2.26,2.26,0,0,0,.88.19,1.57,1.57,0,0,0,1.12-.39,1.36,1.36,0,0,0,.41-1,1.14,1.14,0,0,0-.28-.8,3.9,3.9,0,0,0-1.27-.73,3.9,3.9,0,0,1-1.41-.86,1.62,1.62,0,0,1-.38-1.11,1.78,1.78,0,0,1,.58-1.37,2.14,2.14,0,0,1,1.51-.53,3,3,0,0,1,.82.12,3.39,3.39,0,0,1,.8.36Zm-9.11,0a3.85,3.85,0,0,0-.85-.45,2.35,2.35,0,0,0-.8-.14,1.52,1.52,0,0,0-1.07.38,1.25,1.25,0,0,0-.42,1,1.12,1.12,0,0,0,.27.77,3.48,3.48,0,0,0,1.15.67l.15.06a3.75,3.75,0,0,1,1.33.78,1.74,1.74,0,0,1,.35.58,2,2,0,0,1,.12.69,1.84,1.84,0,0,1-.6,1.41,2.16,2.16,0,0,1-1.53.55,2.79,2.79,0,0,1-.93-.16,3.94,3.94,0,0,1-.93-.48v-.7a4.45,4.45,0,0,0,1,.59,2.26,2.26,0,0,0,.88.19,1.57,1.57,0,0,0,1.12-.39,1.36,1.36,0,0,0,.41-1,1.15,1.15,0,0,0-.28-.8,3.9,3.9,0,0,0-1.27-.73,3.9,3.9,0,0,1-1.41-.86,1.63,1.63,0,0,1-.38-1.11,1.78,1.78,0,0,1,.58-1.37,2.14,2.14,0,0,1,1.51-.53,3,3,0,0,1,.82.12,3.39,3.39,0,0,1,.8.36Zm-10.23-1h1.75a2.85,2.85,0,0,1,1.76.46,1.58,1.58,0,0,1,.61,1.33,1.73,1.73,0,0,1-.34,1.1,2.05,2.05,0,0,1-1,.66,2,2,0,0,1,.35.26,1.93,1.93,0,0,1,.29.34l2,3h-.65l-1.14-1.77c-.23-.35-.42-.63-.59-.86a4.3,4.3,0,0,0-.39-.48,1.08,1.08,0,0,0-.5-.27,4,4,0,0,0-.92-.08h-.59v3.45h-.58Zm.58.48v2.76h.44a10.65,10.65,0,0,0,1.14,0,1.89,1.89,0,0,0,.53-.14,1.29,1.29,0,0,0,.59-.49,1.42,1.42,0,0,0,.2-.77,1.15,1.15,0,0,0-.44-1,2,2,0,0,0-1.26-.34Zm-10.34,3.08a3.55,3.55,0,0,1,.29-1.4,3.68,3.68,0,0,1,.82-1.19,3.79,3.79,0,0,1,2.67-1.08,3.85,3.85,0,0,1,1.45.28,3.69,3.69,0,0,1,1.22.81,3.64,3.64,0,0,1,.82,1.2,3.6,3.6,0,0,1,.28,1.42,3.75,3.75,0,0,1-.16,1.09,3.57,3.57,0,0,1-.48,1,3.71,3.71,0,0,1-1.36,1.21,3.78,3.78,0,0,1-1.78.43,3.86,3.86,0,0,1-1.46-.28,3.64,3.64,0,0,1-1.21-.8,3.71,3.71,0,0,1-1.1-2.67Zm.63,0a3.3,3.3,0,0,0,.91,2.27,3.12,3.12,0,0,0,1,.69,3.09,3.09,0,0,0,3.44-.69,3.14,3.14,0,0,0,.68-1,3.27,3.27,0,0,0,.24-1.23,3.21,3.21,0,0,0-.23-1.22A3.22,3.22,0,0,0,236.31,39a3.06,3.06,0,0,0-2.4,0,3.24,3.24,0,0,0-1,.7,3.06,3.06,0,0,0-.68,1A3.23,3.23,0,0,0,232,41.92Zm-2.6-2.57a3.85,3.85,0,0,0-.85-.45,2.35,2.35,0,0,0-.8-.14,1.52,1.52,0,0,0-1.07.38,1.26,1.26,0,0,0-.42,1,1.12,1.12,0,0,0,.27.77,3.49,3.49,0,0,0,1.15.67l.15.06a3.76,3.76,0,0,1,1.33.78,1.75,1.75,0,0,1,.35.58,2,2,0,0,1,.12.69,1.84,1.84,0,0,1-.6,1.41,2.16,2.16,0,0,1-1.53.55,2.79,2.79,0,0,1-.93-.16,3.93,3.93,0,0,1-.93-.48v-.7a4.45,4.45,0,0,0,1,.59,2.26,2.26,0,0,0,.88.19,1.57,1.57,0,0,0,1.12-.39,1.37,1.37,0,0,0,.41-1,1.15,1.15,0,0,0-.28-.8,3.9,3.9,0,0,0-1.27-.73,3.9,3.9,0,0,1-1.41-.86,1.62,1.62,0,0,1-.38-1.11,1.78,1.78,0,0,1,.58-1.37,2.14,2.14,0,0,1,1.51-.53,3,3,0,0,1,.82.12,3.39,3.39,0,0,1,.8.36Zm-6.69,6.16V38.33h.62v7.18Zm-7.78-7.18h.63l2.46,6,2.48-6h.61l-3,7.31H218Zm-4.9,0a5.46,5.46,0,0,1,1.4.16,3.14,3.14,0,0,1,1,.5,3.47,3.47,0,0,1,1.06,1.28,3.84,3.84,0,0,1,0,3.32,3.47,3.47,0,0,1-1.06,1.28,3.09,3.09,0,0,1-1,.5,5.33,5.33,0,0,1-1.39.16h-2.49V38.33Zm-.14.52h-1.74V45h1.74a5.48,5.48,0,0,0,1.22-.12,2.6,2.6,0,0,0,.88-.37,2.75,2.75,0,0,0,.94-1.09,3.49,3.49,0,0,0,0-3,2.74,2.74,0,0,0-.94-1.09,2.57,2.57,0,0,0-.88-.37A5.62,5.62,0,0,0,209.86,38.84Zm-10.37,6.67,3.13-7.25h.23L206,45.51h-.61L204.32,43h-3.16l-1.06,2.5Zm1.87-3h2.76l-1.38-3.26Zm-10,3V38.33h.6V45h3.39v.48Zm-8.05,0,3.13-7.25h.23l3.13,7.25h-.61L188.14,43H185l-1.06,2.5Zm1.87-3h2.76l-1.38-3.26Zm-4.06,3V38.33h.62v7.18ZM179,45a6.42,6.42,0,0,1-1.27.49,4.84,4.84,0,0,1-1.24.17,4.24,4.24,0,0,1-1.18-.16,3.85,3.85,0,0,1-1-.48A3.59,3.59,0,0,1,173,43.67a3.71,3.71,0,0,1-.44-1.78,3.62,3.62,0,0,1,1.1-2.59,3.8,3.8,0,0,1,1.26-.82,4.14,4.14,0,0,1,1.52-.28,4.7,4.7,0,0,1,1.22.17,6.6,6.6,0,0,1,1.29.51v.6a7.26,7.26,0,0,0-1.35-.57,4.12,4.12,0,0,0-1.19-.19,3.33,3.33,0,0,0-1,.14,3.26,3.26,0,0,0-.86.4,3.17,3.17,0,0,0-1.41,2.66,3.29,3.29,0,0,0,.92,2.27,3,3,0,0,0,1,.69,3.39,3.39,0,0,0,1.28.24,4.09,4.09,0,0,0,1.18-.19,7.62,7.62,0,0,0,1.35-.57Zm-15,.53V38.33h.6l5.26,6.27V38.33h.58v7.18h-.53l-5.32-6.35v6.35Zm-8,0L159,38.27h.23l3.13,7.25h-.61L160.73,43h-3.16l-1.06,2.5Zm1.87-3h2.76l-1.38-3.26Zm-9.83,3V38.33h.6l5.26,6.27V38.33h.58v7.18h-.53l-5.32-6.35v6.35Zm-3.3,0V38.33h.62v7.18Zm-5.69,0V38.33h3.65v.48h-3.05v2.65h2.76v.47h-2.76v3.58Zm-8.5,0V38.84h-2.67v-.52h6v.52h-2.67v6.67Zm-11,0V38.33h.6l5.26,6.27V38.33h.58v7.18h-.53L120,39.16v6.35Zm-6.14,0V38.33h3.89v.46h-3.32v2.85h3.21v.46h-3.21V45h3.4v.48Zm-6.15-7.18a5.46,5.46,0,0,1,1.4.16,3.14,3.14,0,0,1,1,.5,3.47,3.47,0,0,1,1.06,1.28,3.84,3.84,0,0,1,0,3.32,3.47,3.47,0,0,1-1.06,1.28,3.1,3.1,0,0,1-1,.5,5.33,5.33,0,0,1-1.39.16h-2.49V38.33Zm-.14.52H105.3V45H107a5.48,5.48,0,0,0,1.22-.12,2.6,2.6,0,0,0,.88-.37,2.75,2.75,0,0,0,.94-1.09,3.49,3.49,0,0,0,0-3,2.74,2.74,0,0,0-.94-1.09,2.57,2.57,0,0,0-.88-.37A5.61,5.61,0,0,0,107,38.84ZM95.61,45.51V38.33h.6l5.26,6.27V38.33H102v7.18h-.53l-5.32-6.35v6.35Zm-6.14,0V38.33h3.89v.46H90v2.85h3.21v.46H90V45h3.4v.48Zm-6.23-7.18H85a2.75,2.75,0,0,1,1.77.49,1.75,1.75,0,0,1,.6,1.44,1.79,1.79,0,0,1-.58,1.39,2.2,2.2,0,0,1-1.54.52H83.81v3.34h-.58Zm.58.48v2.86H84.9a2.18,2.18,0,0,0,1.37-.35,1.32,1.32,0,0,0,.44-1.1,1.29,1.29,0,0,0-.43-1.05A1.94,1.94,0,0,0,85,38.81Zm-6.72,6.7V38.33H81v.46H77.67v2.85h3.21v.46H77.67V45h3.4v.48Zm-6.15-7.18a5.46,5.46,0,0,1,1.4.16,3.14,3.14,0,0,1,1,.5,3.47,3.47,0,0,1,1.06,1.28,3.84,3.84,0,0,1,0,3.32,3.47,3.47,0,0,1-1.06,1.28,3.09,3.09,0,0,1-1,.5,5.33,5.33,0,0,1-1.39.16H68.45V38.33Zm-.14.52H69.06V45H70.8A5.48,5.48,0,0,0,72,44.89a2.6,2.6,0,0,0,.88-.37,2.75,2.75,0,0,0,.94-1.09,3.49,3.49,0,0,0,0-3,2.75,2.75,0,0,0-.94-1.09A2.57,2.57,0,0,0,72,39,5.62,5.62,0,0,0,70.8,38.84ZM59.37,45.51V38.33H60l5.26,6.27V38.33h.58v7.18h-.53L60,39.16v6.35Zm-3.3,0V38.33h.62v7.18Z"/>
    <path class="c" d="M22.74,0A22.74,22.74,0,1,1,0,22.74,22.74,22.74,0,0,1,22.74,0"/>
    <rect class="d" x="16.51" y="13.98" width="1.28" height="8.49" transform="translate(-7.07 24.54) rotate(-61.35)"/>
    <path class="e" d="M21.76,17.22a3.6,3.6,0,1,1-3.6,3.6,3.6,3.6,0,0,1,3.6-3.6"/>
    <path class="e" d="M12.72,10.92a4.8,4.8,0,1,1-4.8,4.8,4.8,4.8,0,0,1,4.8-4.8"/>
    <path class="e" d="M14.31,26.38a4,4,0,1,1-4,4,4,4,0,0,1,4-4"/>
    <rect class="d" x="13.51" y="25.27" width="8.49" height="1.28" transform="translate(-13.61 24.17) rotate(-52.4)"/>
    <rect class="d" x="20.72" y="16.57" width="8.49" height="1.28" transform="translate(-4.3 25.15) rotate(-49.75)"/>
    <path class="e" d="M33.88,22a6,6,0,1,1-6,6,6,6,0,0,1,6-6"/>
    <path class="e" d="M27.92,11.39a2.4,2.4,0,1,1-2.4,2.4,2.4,2.4,0,0,1,2.4-2.4"/>
    <rect class="d" x="25.78" y="19.33" width="1.28" height="8.49" transform="translate(-7.26 34.5) rotate(-59.7)"/>
  </g>
</svg>
