<svg xmlns="http://www.w3.org/2000/svg" viewBox="0 0 437.68 98.31"><defs><style>.cls-1{fill:#329cc6;}.cls-1,.cls-2{fill-rule:evenodd;}.cls-2,.cls-4{fill:#66d4ed;}.cls-3{fill:#fff;}</style></defs><g id="Vrstva_2" data-name="Vrstva 2"><g id="Vrstva_1-2" data-name="Vrstva 1"><path class="cls-1" d="M82,61.05c0,.12-.11.23-.15.35h0c-.06.15-.13.3-.2.45C76,75.15,66.4,84.69,55.37,89.38c-.24.11-.49.2-.74.3l-.57.23A39.78,39.78,0,0,1,17.82,86.8C12,83.23,4,71.42,4.31,70.78c6.53-14,17.34-23.5,29.36-27.48a61.9,61.9,0,0,1,2.85-8.74C44.27,15.63,59.94,4.11,76.48,3c10.88,15.74,13.66,38.23,5.55,58"/><path class="cls-2" d="M64.63,48.26c0,.1-.09.19-.13.29h0c0,.12-.11.24-.16.37-4.72,11-12.7,19-21.88,22.88l-.61.26-.48.19a33.1,33.1,0,0,1-30.13-2.59C6.43,66.7-.24,56.88,0,56.35,5.43,44.74,14.42,36.81,24.42,33.5a53.56,53.56,0,0,1,2.36-7.27C33.23,10.49,46.26.91,60,0c9.05,13.08,11.36,31.79,4.62,48.26"/><path class="cls-2" d="M88.52,23.57S105.87,74,48.33,98.27c42.4,1.53,66.35-42.42,40.19-74.7"/><path class="cls-3" d="M31.56,35.08a8.2,8.2,0,0,1,5.71-1.94,8.14,8.14,0,0,1,5.65,1.94A6.29,6.29,0,0,1,45.07,40a6.14,6.14,0,0,1-2.15,4.79,8.27,8.27,0,0,1-5.65,1.9,8.32,8.32,0,0,1-5.71-1.9A6.14,6.14,0,0,1,29.41,40a6.29,6.29,0,0,1,2.15-4.88"/><rect class="cls-3" x="30.39" y="49.41" width="13.63" height="34.63"/><path class="cls-3" d="M83.71,53.16q3.35,4,3.35,10.8V84H73.49V65.68a5.55,5.55,0,0,0-1.32-3.9,5.08,5.08,0,0,0-7.09,0,5.63,5.63,0,0,0-1.29,3.9V84H50.16V49.41H63.79v5.28a12.23,12.23,0,0,1,4.27-4,12.57,12.57,0,0,1,6.35-1.53,11.48,11.48,0,0,1,9.3,4"/><polygon class="cls-4" points="125.49 83.77 115.58 69.71 115.58 83.77 105.44 83.77 105.44 39.86 115.58 39.86 115.58 63.95 125.49 50.66 137.42 50.66 124.07 67.21 137.72 83.77 125.49 83.77"/><path class="cls-4" d="M160.5,52a10.36,10.36,0,0,1,4,4.69v-6h10.09V83.77H164.54v-6a10.29,10.29,0,0,1-4,4.68A12,12,0,0,1,154,84.19a13.43,13.43,0,0,1-7.32-2,14,14,0,0,1-5.11-5.91,20.52,20.52,0,0,1-1.87-9,20.53,20.53,0,0,1,1.87-9,14,14,0,0,1,5.11-5.87,13.35,13.35,0,0,1,7.32-2A12,12,0,0,1,160.5,52M152,61.28a8.34,8.34,0,0,0-2,5.93,8.37,8.37,0,0,0,2,5.94,7.46,7.46,0,0,0,10.5-.06,8.26,8.26,0,0,0,2-5.88,8.21,8.21,0,0,0-2-5.9,7.47,7.47,0,0,0-10.5,0"/><rect class="cls-4" x="181.63" y="39.86" width="10.15" height="43.91"/><polygon class="cls-4" points="218.83 83.77 208.92 69.71 208.92 83.77 198.78 83.77 198.78 39.86 208.92 39.86 208.92 63.95 218.83 50.66 230.76 50.66 217.41 67.21 231.06 83.77 218.83 83.77"/><path class="cls-4" d="M267.67,50.66V83.77h-10.2v-6a11,11,0,0,1-4.25,4.63,12.39,12.39,0,0,1-6.56,1.72,11.49,11.49,0,0,1-9-3.8q-3.35-3.8-3.35-10.45V50.66h10.09v18a7.38,7.38,0,0,0,1.75,5.25,6.15,6.15,0,0,0,4.72,1.87,6.24,6.24,0,0,0,4.87-2,8,8,0,0,0,1.78-5.58V50.66Z"/><rect class="cls-4" x="274.68" y="39.86" width="10.15" height="43.91"/><path class="cls-4" d="M310.93,52a10.36,10.36,0,0,1,4,4.69v-6h10.09V83.77H315v-6a10.29,10.29,0,0,1-4,4.68,12,12,0,0,1-6.53,1.73,13.47,13.47,0,0,1-7.33-2,14.06,14.06,0,0,1-5.1-5.91,20.52,20.52,0,0,1-1.87-9,20.53,20.53,0,0,1,1.87-9,14.07,14.07,0,0,1,5.1-5.87,13.38,13.38,0,0,1,7.33-2A12.06,12.06,0,0,1,310.93,52m-8.52,9.32a8.38,8.38,0,0,0-2,5.93,8.41,8.41,0,0,0,2,5.94,7.47,7.47,0,0,0,10.51-.06A8.3,8.3,0,0,0,315,67.21a8.26,8.26,0,0,0-2.05-5.9,7.48,7.48,0,0,0-10.51,0"/><path class="cls-4" d="M357.75,53.77a15.66,15.66,0,0,1,5.46,9.7H352.47a5.68,5.68,0,0,0-2-3.32A5.8,5.8,0,0,0,346.77,59a5.44,5.44,0,0,0-4.39,2.11c-1.15,1.41-1.72,3.45-1.72,6.14s.57,4.74,1.72,6.15a5.43,5.43,0,0,0,4.39,2.1,5.79,5.79,0,0,0,3.74-1.18,5.71,5.71,0,0,0,2-3.33h10.74a15.61,15.61,0,0,1-5.46,9.7A16.42,16.42,0,0,1,347,84.19a17.84,17.84,0,0,1-8.63-2,14.62,14.62,0,0,1-5.91-5.91,18.34,18.34,0,0,1-2.13-9,18.56,18.56,0,0,1,2.1-9,14.35,14.35,0,0,1,5.91-5.87,17.9,17.9,0,0,1,8.66-2,16.47,16.47,0,0,1,10.74,3.53M356,43.3l-9.2,5-9.2-5V36.59l9.2,5.11,9.2-5.11Z"/><polygon class="cls-4" points="388.55 83.77 378.64 69.71 378.64 83.77 368.49 83.77 368.49 39.86 378.64 39.86 378.64 63.95 388.55 50.66 400.48 50.66 387.13 67.21 400.77 83.77 388.55 83.77"/><path class="cls-4" d="M423.56,52a10.36,10.36,0,0,1,4,4.69v-6h10.08V83.77H427.6v-6a10.29,10.29,0,0,1-4,4.68A12,12,0,0,1,417,84.19a13.47,13.47,0,0,1-7.33-2,14.06,14.06,0,0,1-5.1-5.91,20.52,20.52,0,0,1-1.87-9,20.53,20.53,0,0,1,1.87-9,14.07,14.07,0,0,1,5.1-5.87,13.38,13.38,0,0,1,7.33-2A12.06,12.06,0,0,1,423.56,52M415,61.28a8.38,8.38,0,0,0-2,5.93,8.41,8.41,0,0,0,2,5.94,7.47,7.47,0,0,0,10.51-.06,8.3,8.3,0,0,0,2.05-5.88,8.26,8.26,0,0,0-2.05-5.9,7.48,7.48,0,0,0-10.51,0"/></g></g></svg>