<?xml version="1.0" encoding="utf-8"?>
<!-- Generator: Adobe Illustrator 19.0.0, SVG Export Plug-In . SVG Version: 6.00 Build 0)  -->
<svg version="1.1" id="Vrstva_1" xmlns="http://www.w3.org/2000/svg" xmlns:xlink="http://www.w3.org/1999/xlink" x="0px" y="0px"
	 viewBox="-251.8 348.7 69.6 69.5" style="enable-background:new -251.8 348.7 69.6 69.5;" xml:space="preserve">
<style type="text/css">
	.st0{fill:#FF7F00;}
</style>
<g id="two__x28_font_x29_">
</g>
<g id="Vrstva_7">
	<g id="XMLID_1_">
		<g id="XMLID_28_">
			<circle id="XMLID_15_" class="st0" cx="-230.7" cy="363.4" r="4"/>
		</g>
		<g id="XMLID_29_">
			<circle id="XMLID_13_" class="st0" cx="-221.7" cy="388.2" r="4"/>
		</g>
		<g id="XMLID_30_">
			<circle id="XMLID_11_" class="st0" cx="-197.1" cy="397.1" r="4"/>
		</g>
		<path id="XMLID_97_" class="st0" d="M-212.1,383.3L-212.1,383.3c0.7,1.4,1.1,3.1,1.1,4.9c0,6-4.8,10.8-10.8,10.8
			s-10.8-4.8-10.8-10.8s4.8-10.8,10.8-10.8c1.7,0,3.3,0.4,4.8,1.1l0,0l29.8-29.8h-64.6v63.7l8.8-8.8v-31.7l3-3l0,0
			c-1-1.6-1.6-3.6-1.6-5.6c0-6,4.8-10.8,10.8-10.8s10.8,4.8,10.8,10.8s-4.8,10.8-10.8,10.8c-1.9,0-3.7-0.5-5.3-1.4l0,0l-1.3,1.3
			v29.7h29.6l1.2-1.2l0,0c-1-1.6-1.5-3.5-1.5-5.5c0-6,4.8-10.8,10.8-10.8s10.8,4.8,10.8,10.8s-4.8,10.8-10.8,10.8
			c-2,0-3.8-0.5-5.4-1.5l0,0l-3,3H-237l-8.9,8.9h63.7v-64.8L-212.1,383.3z"/>
	</g>
	<g id="XMLID_2_">
	</g>
	<g id="XMLID_3_">
	</g>
	<g id="XMLID_4_">
	</g>
	<g id="XMLID_5_">
	</g>
	<g id="XMLID_6_">
	</g>
	<g id="XMLID_7_">
	</g>
</g>
</svg>
